<?xml version="1.0" standalone="no"?>
<!DOCTYPE svg PUBLIC "-//W3C//DTD SVG 20010904//EN"
        "http://www.w3.org/TR/2001/REC-SVG-20010904/DTD/svg10.dtd">
<svg version="1.0" xmlns="http://www.w3.org/2000/svg"
     width="512.000000pt" height="512.000000pt" viewBox="0 0 512.000000 512.000000"
     preserveAspectRatio="xMidYMid meet">

    <g transform="translate(0.000000,512.000000) scale(0.100000,-0.100000)"
       fill="#389180" stroke="none">
        <path d="M1785 4935 c-30 -29 -33 -86 -10 -184 49 -206 210 -367 416 -416 51
-12 140 -15 452 -15 213 0 387 -3 387 -6 0 -3 -4 -13 -10 -23 -5 -10 -14 -46
-19 -79 -12 -77 1 -165 34 -237 32 -66 320 -389 418 -468 131 -105 305 -174
487 -192 40 -3 168 4 337 20 186 17 337 25 473 25 l200 0 0 80 0 80 -202 0
c-137 0 -292 -8 -478 -25 -289 -27 -337 -26 -458 6 -161 43 -255 109 -440 314
-178 196 -198 223 -211 286 -13 58 1 136 29 171 l18 22 221 -147 c125 -83 232
-147 245 -147 13 0 35 9 50 21 35 27 36 86 4 116 -13 11 -132 93 -265 181
l-243 161 -497 3 c-495 3 -498 3 -556 26 -104 43 -208 160 -233 265 l-6 27
700 0 699 0 197 -104 c195 -103 197 -104 211 -83 23 36 59 116 54 121 -7 6
-258 141 -346 185 l-83 41 -775 0 -776 0 -24 -25z"/>
        <path d="M3919 4575 c-22 -42 -31 -67 -24 -73 6 -5 152 -84 325 -176 l315
-166 207 0 208 0 0 80 0 80 -188 0 -188 0 -302 160 c-166 88 -305 160 -310
160 -4 0 -24 -29 -43 -65z"/>
        <path d="M1644 4246 c-612 -327 -1007 -993 -1003 -1693 0 -59 3 -138 8 -175
l7 -67 -106 56 c-58 31 -124 67 -147 80 l-42 24 -14 -23 c-8 -13 -26 -44 -40
-70 l-25 -47 191 -104 c306 -167 295 -163 341 -126 31 25 32 44 9 171 -24 133
-24 447 1 583 37 201 108 400 208 577 159 283 435 546 731 697 15 8 27 19 27
25 -1 6 -15 39 -33 73 l-32 62 -81 -43z"/>
        <path d="M2410 4073 c-364 -39 -690 -199 -946 -466 -208 -216 -344 -482 -400
-782 -26 -135 -26 -402 -1 -530 16 -77 54 -225 61 -232 4 -5 130 39 140 48 5
5 0 38 -12 81 -12 40 -29 118 -37 173 -87 579 222 1161 750 1415 207 100 351
133 582 134 l162 1 6 45 c3 25 8 59 11 76 4 30 2 32 -33 38 -39 6 -221 6 -283
-1z"/>
        <path d="M2185 3575 l-25 -24 0 -296 0 -295 -80 0 -80 0 0 -80 0 -80 135 0
c131 0 137 1 160 25 l25 24 0 296 0 295 240 0 240 0 0 -295 0 -296 25 -24 24
-25 296 0 295 0 0 -240 0 -240 -295 0 -296 0 -24 -25 -25 -24 0 -296 0 -295
-240 0 -240 0 0 295 0 296 -25 24 -24 25 -296 0 -295 0 0 240 0 240 80 0 80 0
0 80 0 80 -135 0 c-131 0 -137 -1 -160 -25 l-25 -24 0 -351 0 -351 25 -24 24
-25 296 0 295 0 0 -295 0 -296 25 -24 24 -25 351 0 351 0 24 25 25 24 0 296 0
295 295 0 296 0 24 25 25 24 0 351 0 351 -25 24 -24 25 -296 0 -295 0 0 295 0
296 -25 24 -24 25 -351 0 -351 0 -24 -25z"/>
        <path d="M4286 3099 c-32 -25 -32 -45 -7 -164 123 -564 -45 -1165 -439 -1578
-133 -139 -225 -213 -417 -334 -17 -10 -16 -15 16 -77 19 -36 40 -66 46 -66
17 0 212 130 285 190 396 324 645 788 701 1305 11 105 7 335 -7 448 l-7 48
111 -70 110 -69 41 66 c31 52 38 69 28 78 -13 12 -339 215 -374 233 -32 16
-57 14 -87 -10z"/>
        <path d="M3918 3033 c-38 -14 -68 -30 -68 -37 0 -6 9 -39 20 -73 52 -167 63
-427 25 -621 -69 -358 -291 -686 -600 -884 -98 -64 -175 -101 -293 -142 -155
-54 -253 -70 -434 -70 l-158 -1 -5 -45 c-3 -25 -8 -59 -11 -76 -4 -30 -2 -32
33 -38 111 -18 361 3 515 43 179 47 415 162 546 267 304 245 494 559 569 939
24 125 24 405 0 530 -21 106 -58 235 -66 234 -3 0 -36 -12 -73 -26z"/>
        <path d="M830 1785 c-166 -16 -312 -24 -452 -24 l-208 -1 0 -80 0 -80 205 0
c141 0 290 8 478 25 157 15 295 23 327 20 139 -16 276 -70 382 -151 72 -56
346 -359 377 -419 27 -51 32 -127 12 -187 -24 -73 -22 -74 -262 86 -124 82
-230 146 -243 146 -13 0 -35 -9 -50 -21 -32 -25 -37 -86 -8 -112 9 -8 130 -90
267 -181 l250 -166 208 0 207 0 0 80 0 80 -115 0 c-63 0 -115 2 -115 4 0 3 5
17 11 33 35 91 28 213 -16 308 -24 51 -279 347 -368 428 -151 138 -347 219
-557 231 -52 3 -179 -4 -330 -19z"/>
        <path d="M170 881 l0 -81 188 0 189 0 369 -196 c203 -108 475 -252 604 -320
l236 -124 777 0 778 0 24 25 c30 29 33 86 10 184 -49 206 -210 367 -416 416
-45 10 -120 15 -256 15 l-193 0 0 -79 0 -80 208 -3 c188 -3 212 -6 265 -27
104 -41 208 -159 233 -263 l6 -28 -699 0 -700 0 -594 317 -594 318 -217 3
-218 3 0 -80z"/>
    </g>
</svg>
